<svg width="20" height="20" viewBox="0 0 20 20" fill="none" xmlns="http://www.w3.org/2000/svg">
<g clip-path="url(#clip0_766_7492)">
<path d="M0 0H20V20H0V0Z" fill="#012169"/>
<path d="M20 0V2.5L12.5781 10L20 17.3047V20H17.3828L9.92188 12.6562L2.65625 20H0V17.3438L7.26562 10.0391L0 2.89062V0H2.42188L9.92188 7.34375L17.1875 0H20Z" fill="white"/>
<path d="M7.1875 12.6562L7.61719 13.9844L1.64062 20H0V19.8828L7.1875 12.6562ZM12.0312 12.1875L14.1406 12.5L20 18.2422V20L12.0312 12.1875ZM20 0L12.5 7.65625L12.3438 5.9375L18.2031 0H20ZM0 0.0390625L7.53906 7.42188L5.23438 7.10938L0 1.91406V0.0390625Z" fill="#C8102E"/>
<path d="M6.875 0V20H13.125V0H6.875ZM0 6.875V13.125H20V6.875H0Z" fill="white"/>
<path d="M0 8.125V11.875H20V8.125H0ZM8.125 0V20H11.875V0H8.125Z" fill="#C8102E"/>
</g>
</svg>
