<svg width="20" height="20" viewBox="0 0 20 20" fill="none" xmlns="http://www.w3.org/2000/svg">
<g clip-path="url(#clip0_766_7492)">
<path d="M0 0H20V20H0V0Z" fill="#DE2910"/>
<path d="M8 4.1L2.9 7.4L5 2L6.8 7.4L2 4.1H8Z" fill="#FFDE00"/>
<path d="M9.24113 1.28982L11.0583 2.17986L9.15621 2.50669L10.3893 1.0663L10.2705 3.003L9.24113 1.28982Z" fill="#FFDE00"/>
<path d="M11.5577 3.05413L12.8863 4.58218L11.0056 4.14279L12.7031 3.29515L11.8395 5.03418L11.5577 3.05413Z" fill="#FFDE00"/>
<path d="M11.9758 5.95699L12.5649 7.89538L11.0268 6.72572L12.9234 6.64507L11.4242 7.88055L11.9758 5.95699Z" fill="#FFDE00"/>
<path d="M10.3907 8.03375L10.1862 10.0472L9.21973 8.37625L10.9987 9.03325L9.14073 9.59375L10.3907 8.03375Z" fill="#FFDE00"/>
</g>
</svg>
