<svg width="20" height="20" viewBox="0 0 20 20" fill="none" xmlns="http://www.w3.org/2000/svg">
<path d="M0 10C0 4.47715 4.47715 0 10 0C15.5228 0 20 4.47715 20 10C20 15.5228 15.5228 20 10 20C4.47715 20 0 15.5228 0 10Z" fill="#003399"/>
<path d="M10.0006 3.17969L9.7041 4.16758L10.1982 4.26602L10.0006 3.17969Z" fill="#FFCC00"/>
<path d="M10.0004 3.17969L10.2969 4.16758L9.80273 4.26602L10.0004 3.17969Z" fill="#FFCC00"/>
<path d="M10.9391 3.85938L9.9082 3.88281L9.9668 4.3832L10.9391 3.85938Z" fill="#FFCC00"/>
<path d="M10.9395 3.85938L10.0914 4.44531L9.84375 4.00742L10.9395 3.85938Z" fill="#FFCC00"/>
<path d="M10.5807 4.96523L10.24 3.99219L9.78223 4.20234L10.5807 4.96523Z" fill="#FFCC00"/>
<path d="M10.5811 4.96367L9.76074 4.33867L10.1021 3.96875L10.5811 4.96367Z" fill="#FFCC00"/>
<path d="M9.0625 3.85938L10.0934 3.88281L10.0348 4.3832L9.0625 3.85938Z" fill="#FFCC00"/>
<path d="M9.0625 3.85938L9.91055 4.44531L10.1562 4.00742L9.0625 3.85938Z" fill="#FFCC00"/>
<path d="M9.41895 4.96523L9.75957 3.99219L10.2174 4.20234L9.41895 4.96523Z" fill="#FFCC00"/>
<path d="M9.41895 4.96367L10.2393 4.33867L9.89785 3.96875L9.41895 4.96367Z" fill="#FFCC00"/>
<path d="M10.0006 15.0352L9.7041 16.0227L10.1982 16.1215L10.0006 15.0352Z" fill="#FFCC00"/>
<path d="M10.0004 15.0352L10.2969 16.0227L9.80273 16.1215L10.0004 15.0352Z" fill="#FFCC00"/>
<path d="M10.9391 15.7148L9.9082 15.7383L9.9668 16.2383L10.9391 15.7148Z" fill="#FFCC00"/>
<path d="M10.9395 15.7148L10.0914 16.3008L9.84375 15.8629L10.9395 15.7148Z" fill="#FFCC00"/>
<path d="M10.5807 16.8207L10.24 15.8477L9.78223 16.0566L10.5807 16.8207Z" fill="#FFCC00"/>
<path d="M10.5811 16.8191L9.76074 16.1941L10.1021 15.8242L10.5811 16.8191Z" fill="#FFCC00"/>
<path d="M9.0625 15.7148L10.0934 15.7383L10.0348 16.2383L9.0625 15.7148Z" fill="#FFCC00"/>
<path d="M9.0625 15.7148L9.91055 16.3008L10.1562 15.8629L9.0625 15.7148Z" fill="#FFCC00"/>
<path d="M9.41895 16.8207L9.75957 15.8477L10.2174 16.0566L9.41895 16.8207Z" fill="#FFCC00"/>
<path d="M9.41895 16.8191L10.2393 16.1941L9.89785 15.8242L9.41895 16.8191Z" fill="#FFCC00"/>
<path d="M4.0748 9.10938L3.77832 10.0969L4.27207 10.1957L4.0748 9.10938Z" fill="#FFCC00"/>
<path d="M4.07461 9.10938L4.3707 10.0969L3.87695 10.1957L4.07461 9.10938Z" fill="#FFCC00"/>
<path d="M5.01426 9.78906L3.9834 9.8125L4.04199 10.3125L5.01426 9.78906Z" fill="#FFCC00"/>
<path d="M5.01406 9.78906L4.16641 10.375L3.91992 9.93594L5.01406 9.78906Z" fill="#FFCC00"/>
<path d="M4.65488 10.8953L4.31387 9.92188L3.85645 10.1324L4.65488 10.8953Z" fill="#FFCC00"/>
<path d="M4.65527 10.8937L3.83496 10.2687L4.17637 9.89844L4.65527 10.8937Z" fill="#FFCC00"/>
<path d="M3.13477 9.78906L4.16562 9.8125L4.10703 10.3125L3.13477 9.78906Z" fill="#FFCC00"/>
<path d="M3.13477 9.78906L3.98242 10.375L4.22891 9.93594L3.13477 9.78906Z" fill="#FFCC00"/>
<path d="M3.49316 10.8953L3.83418 9.92188L4.2916 10.1324L3.49316 10.8953Z" fill="#FFCC00"/>
<path d="M3.49316 10.8937L4.31348 10.2687L3.97207 9.89844L3.49316 10.8937Z" fill="#FFCC00"/>
<path d="M6.5293 5.80352L7.34961 5.17852L7.00781 4.80859L6.5293 5.80352Z" fill="#FFCC00"/>
<path d="M6.5293 5.80508L6.86992 4.83203L7.32773 5.04219L6.5293 5.80508Z" fill="#FFCC00"/>
<path d="M6.17188 4.69922L7.01992 5.28516L7.26562 4.84727L6.17188 4.69922Z" fill="#FFCC00"/>
<path d="M6.17188 4.69922L7.20273 4.72266L7.14414 5.22305L6.17188 4.69922Z" fill="#FFCC00"/>
<path d="M7.10996 4.01953L6.81348 5.00742L7.30762 5.10586L7.10996 4.01953Z" fill="#FFCC00"/>
<path d="M7.11035 4.01953L7.40645 5.00742L6.91504 5.10586L7.11035 4.01953Z" fill="#FFCC00"/>
<path d="M7.69043 5.80742L6.87012 5.18242L7.21152 4.8125L7.69043 5.80742Z" fill="#FFCC00"/>
<path d="M7.69004 5.80898L7.34941 4.83594L6.8916 5.04609L7.69004 5.80898Z" fill="#FFCC00"/>
<path d="M8.04922 4.70312L7.20117 5.28906L6.95312 4.85117L8.04922 4.70312Z" fill="#FFCC00"/>
<path d="M8.04941 4.70312L7.01855 4.72656L7.07715 5.22695L8.04941 4.70312Z" fill="#FFCC00"/>
<path d="M5.49375 7.99844L5.15273 7.02734L4.69531 7.23789L5.49375 7.99844Z" fill="#FFCC00"/>
<path d="M5.49414 7.99922L4.67383 7.37422L5.01523 7.00391L5.49414 7.99922Z" fill="#FFCC00"/>
<path d="M4.33203 7.99922L5.15234 7.37422L4.81094 7.00391L4.33203 7.99922Z" fill="#FFCC00"/>
<path d="M4.33203 7.99844L4.67305 7.02734L5.13047 7.23789L4.33203 7.99844Z" fill="#FFCC00"/>
<path d="M3.97363 6.89453L4.82129 7.48047L5.06777 7.04141L3.97363 6.89453Z" fill="#FFCC00"/>
<path d="M3.97363 6.89453L5.00449 6.91797L4.9459 7.41797L3.97363 6.89453Z" fill="#FFCC00"/>
<path d="M5.85293 6.89453L5.00527 7.48047L4.75879 7.04141L5.85293 6.89453Z" fill="#FFCC00"/>
<path d="M5.85312 6.89453L4.82227 6.91797L4.88086 7.41797L5.85312 6.89453Z" fill="#FFCC00"/>
<path d="M4.91348 6.21094L5.20957 7.19844L4.71582 7.29727L4.91348 6.21094Z" fill="#FFCC00"/>
<path d="M4.91367 6.21094L4.61719 7.19844L5.11094 7.29727L4.91367 6.21094Z" fill="#FFCC00"/>
<path d="M5.85312 12.8359L4.82227 12.8594L4.88086 13.3598L5.85312 12.8359Z" fill="#FFCC00"/>
<path d="M5.85293 12.8359L5.00527 13.4219L4.75879 12.9828L5.85293 12.8359Z" fill="#FFCC00"/>
<path d="M5.49375 13.9426L5.15273 12.9688L4.69531 13.1789L5.49375 13.9426Z" fill="#FFCC00"/>
<path d="M5.49414 13.9406L4.67383 13.3156L5.01523 12.9453L5.49414 13.9406Z" fill="#FFCC00"/>
<path d="M4.33301 13.9406L5.15332 13.3156L4.81191 12.9453L4.33301 13.9406Z" fill="#FFCC00"/>
<path d="M4.33301 13.9426L4.67402 12.9688L5.13145 13.1789L4.33301 13.9426Z" fill="#FFCC00"/>
<path d="M4.91406 12.1562L5.21055 13.1441L4.7168 13.2426L4.91406 12.1562Z" fill="#FFCC00"/>
<path d="M4.91426 12.1562L4.61816 13.1441L5.11191 13.2426L4.91426 12.1562Z" fill="#FFCC00"/>
<path d="M3.97461 12.8359L5.00547 12.8594L4.94687 13.3598L3.97461 12.8359Z" fill="#FFCC00"/>
<path d="M3.97461 12.8359L4.82227 13.4219L5.06875 12.9828L3.97461 12.8359Z" fill="#FFCC00"/>
<path d="M7.99668 14.8242L6.96582 14.8477L7.02441 15.348L7.99668 14.8242Z" fill="#FFCC00"/>
<path d="M7.99688 14.8242L7.14883 15.4102L6.90234 14.9711L7.99688 14.8242Z" fill="#FFCC00"/>
<path d="M7.63926 15.9301L7.29863 14.957L6.84082 15.1672L7.63926 15.9301Z" fill="#FFCC00"/>
<path d="M7.63965 15.9289L6.81934 15.3039L7.16074 14.9336L7.63965 15.9289Z" fill="#FFCC00"/>
<path d="M6.47852 15.9289L7.29883 15.3039L6.95703 14.9336L6.47852 15.9289Z" fill="#FFCC00"/>
<path d="M6.47852 15.9301L6.81914 14.957L7.27695 15.1672L6.47852 15.9301Z" fill="#FFCC00"/>
<path d="M7.05801 14.1445L7.3541 15.1324L6.86035 15.2313L7.05801 14.1445Z" fill="#FFCC00"/>
<path d="M7.0582 14.1445L6.76172 15.1324L7.25586 15.2313L7.0582 14.1445Z" fill="#FFCC00"/>
<path d="M6.11816 14.8242L7.14902 14.8477L7.09043 15.3496L6.11816 14.8242Z" fill="#FFCC00"/>
<path d="M6.11816 14.8242L6.96621 15.4102L7.2127 14.9711L6.11816 14.8242Z" fill="#FFCC00"/>
<path d="M15.9268 9.10938L16.2232 10.0969L15.7295 10.1957L15.9268 9.10938Z" fill="#FFCC00"/>
<path d="M15.927 9.10938L15.6309 10.0969L16.1246 10.1957L15.927 9.10938Z" fill="#FFCC00"/>
<path d="M14.9883 9.78906L16.0191 9.8125L15.9605 10.3125L14.9883 9.78906Z" fill="#FFCC00"/>
<path d="M14.9883 9.78906L15.8359 10.375L16.0824 9.93594L14.9883 9.78906Z" fill="#FFCC00"/>
<path d="M15.3457 10.8953L15.6867 9.92188L16.1441 10.1324L15.3457 10.8953Z" fill="#FFCC00"/>
<path d="M15.3457 10.8937L16.166 10.2687L15.8246 9.89844L15.3457 10.8937Z" fill="#FFCC00"/>
<path d="M16.8668 9.78906L15.8359 9.8125L15.8945 10.3125L16.8668 9.78906Z" fill="#FFCC00"/>
<path d="M16.8666 9.78906L16.0189 10.375L15.7725 9.93594L16.8666 9.78906Z" fill="#FFCC00"/>
<path d="M16.5074 10.8953L16.1664 9.92188L15.709 10.1324L16.5074 10.8953Z" fill="#FFCC00"/>
<path d="M16.5078 10.8937L15.6875 10.2687L16.0289 9.89844L16.5078 10.8937Z" fill="#FFCC00"/>
<path d="M13.4717 5.80352L12.6514 5.17852L12.9932 4.80859L13.4717 5.80352Z" fill="#FFCC00"/>
<path d="M13.4713 5.80508L13.1307 4.83203L12.6729 5.04219L13.4713 5.80508Z" fill="#FFCC00"/>
<path d="M13.8291 4.69922L12.9811 5.28516L12.7354 4.84727L13.8291 4.69922Z" fill="#FFCC00"/>
<path d="M13.8287 4.69922L12.7979 4.72266L12.8564 5.22305L13.8287 4.69922Z" fill="#FFCC00"/>
<path d="M12.892 4.01953L13.1885 5.00742L12.6943 5.10586L12.892 4.01953Z" fill="#FFCC00"/>
<path d="M12.8918 4.01953L12.5957 5.00742L13.0895 5.10586L12.8918 4.01953Z" fill="#FFCC00"/>
<path d="M12.3105 5.80742L13.1309 5.18242L12.7895 4.8125L12.3105 5.80742Z" fill="#FFCC00"/>
<path d="M12.3105 5.80898L12.6512 4.83594L13.109 5.04609L12.3105 5.80898Z" fill="#FFCC00"/>
<path d="M11.9521 4.70312L12.8002 5.28906L13.0482 4.85117L11.9521 4.70312Z" fill="#FFCC00"/>
<path d="M11.9521 4.70312L12.983 4.72656L12.9244 5.22695L11.9521 4.70312Z" fill="#FFCC00"/>
<path d="M14.5068 7.99844L14.8479 7.02734L15.3053 7.23789L14.5068 7.99844Z" fill="#FFCC00"/>
<path d="M14.5068 7.99922L15.3271 7.37422L14.9857 7.00391L14.5068 7.99922Z" fill="#FFCC00"/>
<path d="M15.6689 7.99922L14.8486 7.37422L15.19 7.00391L15.6689 7.99922Z" fill="#FFCC00"/>
<path d="M15.6686 7.99844L15.3275 7.02734L14.8701 7.23789L15.6686 7.99844Z" fill="#FFCC00"/>
<path d="M16.0277 6.89453L15.1801 7.48047L14.9336 7.04141L16.0277 6.89453Z" fill="#FFCC00"/>
<path d="M16.0279 6.89453L14.9971 6.91797L15.0557 7.41797L16.0279 6.89453Z" fill="#FFCC00"/>
<path d="M14.1494 6.89453L14.9971 7.48047L15.2436 7.04141L14.1494 6.89453Z" fill="#FFCC00"/>
<path d="M14.1494 6.89453L15.1803 6.91797L15.1217 7.41797L14.1494 6.89453Z" fill="#FFCC00"/>
<path d="M15.0881 6.21094L14.792 7.19844L15.2857 7.29727L15.0881 6.21094Z" fill="#FFCC00"/>
<path d="M15.0879 6.21094L15.3844 7.19844L14.8906 7.29727L15.0879 6.21094Z" fill="#FFCC00"/>
<path d="M14.1475 12.8359L15.1783 12.8594L15.1197 13.3598L14.1475 12.8359Z" fill="#FFCC00"/>
<path d="M14.1475 12.8359L14.9951 13.4219L15.2416 12.9828L14.1475 12.8359Z" fill="#FFCC00"/>
<path d="M14.5049 13.9426L14.8459 12.9688L15.3033 13.1789L14.5049 13.9426Z" fill="#FFCC00"/>
<path d="M14.5049 13.9406L15.3252 13.3156L14.9838 12.9453L14.5049 13.9406Z" fill="#FFCC00"/>
<path d="M15.666 13.9406L14.8457 13.3156L15.1871 12.9453L15.666 13.9406Z" fill="#FFCC00"/>
<path d="M15.6656 13.9426L15.3246 12.9688L14.8672 13.1789L15.6656 13.9426Z" fill="#FFCC00"/>
<path d="M15.0865 12.1562L14.79 13.1441L15.2838 13.2426L15.0865 12.1562Z" fill="#FFCC00"/>
<path d="M15.0863 12.1562L15.3824 13.1441L14.8887 13.2426L15.0863 12.1562Z" fill="#FFCC00"/>
<path d="M16.026 12.8359L14.9951 12.8594L15.0537 13.3598L16.026 12.8359Z" fill="#FFCC00"/>
<path d="M16.0258 12.8359L15.1781 13.4219L14.9316 12.9828L16.0258 12.8359Z" fill="#FFCC00"/>
<path d="M12.0039 14.8242L13.0348 14.8477L12.9762 15.3496L12.0039 14.8242Z" fill="#FFCC00"/>
<path d="M12.0039 14.8242L12.852 15.4102L13.0984 14.9711L12.0039 14.8242Z" fill="#FFCC00"/>
<path d="M12.3623 15.9301L12.7029 14.957L13.1607 15.1672L12.3623 15.9301Z" fill="#FFCC00"/>
<path d="M12.3623 15.9289L13.1826 15.3039L12.8412 14.9336L12.3623 15.9289Z" fill="#FFCC00"/>
<path d="M13.5225 15.9289L12.7021 15.3039L13.0439 14.9336L13.5225 15.9289Z" fill="#FFCC00"/>
<path d="M13.5221 15.9301L13.1814 14.957L12.7236 15.1672L13.5221 15.9301Z" fill="#FFCC00"/>
<path d="M12.9436 14.1445L12.6475 15.1324L13.1412 15.2313L12.9436 14.1445Z" fill="#FFCC00"/>
<path d="M12.9437 14.1445L13.2402 15.1324L12.7461 15.2313L12.9437 14.1445Z" fill="#FFCC00"/>
<path d="M13.8834 14.8242L12.8525 14.8477L12.9111 15.348L13.8834 14.8242Z" fill="#FFCC00"/>
<path d="M13.8836 14.8242L13.0355 15.4102L12.7891 14.9711L13.8836 14.8242Z" fill="#FFCC00"/>
</svg>
 