<svg width="20" height="20" viewBox="0 0 20 20" fill="none" xmlns="http://www.w3.org/2000/svg">
<g clip-path="url(#clip0_766_7492)">
<path fill-rule="evenodd" clip-rule="evenodd" d="M0 0H38.0004V1.53848H0V0ZM0 3.07695H38.0004V4.61543H0V3.07695ZM0 6.15391H38.0004V7.69238H0V6.15391ZM0 9.23086H38.0004V10.7693H0V9.23086ZM0 12.3078H38.0004V13.8463H0V12.3078ZM0 15.3848H38.0004V16.9232H0V15.3848ZM0 18.4617H38.0004V20.0002H0V18.4617Z" fill="#BD3D44"/>
<path fill-rule="evenodd" clip-rule="evenodd" d="M0 1.53906H38.0004V3.07754H0V1.53906ZM0 4.61602H38.0004V6.15449H0V4.61602ZM0 7.69297H38.0004V9.23145H0V7.69297ZM0 10.7699H38.0004V12.3084H0V10.7699ZM0 13.8469H38.0004V15.3854H0V13.8469ZM0 16.9238H38.0004V18.4623H0V16.9238Z" fill="white"/>
<path fill-rule="evenodd" clip-rule="evenodd" d="M0 0H15.2001V10.7693H0V0Z" fill="#192F5D"/>
<path fill-rule="evenodd" clip-rule="evenodd" d="M1.26162 0.460938L1.41547 0.891711H1.84624L1.49239 1.15325L1.63085 1.56864L1.26162 1.3071L0.923154 1.56864L1.06162 1.15325L0.692383 0.891711H1.15393L1.26162 0.460938ZM3.80011 0.460938L3.93857 0.891711H4.38473L4.01549 1.15325L4.16934 1.56864L3.80011 1.3071L3.43087 1.56864L3.58472 1.15325L3.21548 0.891711H3.66164L3.80011 0.460938ZM6.33859 0.460938L6.47705 0.891711H6.92321L6.55398 1.15325L6.70783 1.56864L6.33859 1.3071L5.96936 1.56864L6.12321 1.15325L5.75397 0.891711H6.20013L6.33859 0.460938ZM8.86169 0.460938L9.01554 0.891711H9.44631L9.09247 1.15325L9.23093 1.56864L8.86169 1.3071L8.50784 1.56864L8.64631 1.15325L8.27707 0.891711H8.73862L8.86169 0.460938ZM11.4002 0.460938L11.5386 0.891711H11.9848L11.6156 1.15325L11.7694 1.56864L11.3848 1.3071L11.0309 1.56864L11.1694 1.15325L10.8002 0.891711H11.2463L11.4002 0.460938ZM13.9387 0.460938L14.0771 0.891711H14.5233L14.1541 1.15325L14.3079 1.56864L13.9387 1.3071L13.5694 1.56864L13.7233 1.15325L13.354 0.891711H13.8002L13.9387 0.460938ZM2.53855 1.53787L2.67702 1.96864H3.12318L2.75394 2.23019L2.90779 2.64557L2.53855 2.38403L2.16932 2.64557L2.32317 2.23019L1.95393 1.96864H2.40009L2.53855 1.53787ZM5.06166 1.53787L5.2155 1.96864H5.64628L5.29243 2.23019L5.43089 2.64557L5.06166 2.38403L4.70781 2.64557L4.84627 2.23019L4.47704 1.96864H4.93858L5.06166 1.53787ZM7.60014 1.53787L7.73861 1.96864H8.18476L7.81553 2.23019L7.96938 2.64557L7.60014 2.38403L7.23091 2.64557L7.38476 2.23019L7.01552 1.96864H7.46168L7.60014 1.53787ZM10.1386 1.53787L10.2771 1.96864H10.7233L10.354 2.23019L10.5079 2.64557L10.1386 2.38403L9.76939 2.64557L9.92324 2.23019L9.55401 1.96864H10.0002L10.1386 1.53787ZM12.6617 1.53787L12.8156 1.96864H13.231L12.8771 2.23019L13.0156 2.64557L12.6463 2.38403L12.2925 2.64557L12.431 2.23019L12.0617 1.96864H12.5233L12.6617 1.53787ZM1.277 2.6148L1.40008 3.04558H1.86163L1.49239 3.30712L1.63085 3.72251L1.26162 3.46097L0.923154 3.72251L1.06162 3.30712L0.692383 3.04558H1.15393L1.277 2.6148ZM3.80011 2.6148L3.93857 3.04558H4.38473L4.03088 3.30712L4.16934 3.72251L3.80011 3.46097L3.44626 3.72251L3.58472 3.30712L3.21548 3.04558H3.66164L3.80011 2.6148ZM6.33859 2.6148L6.47705 3.04558H6.92321L6.55398 3.30712L6.70783 3.72251L6.33859 3.46097L5.96936 3.72251L6.12321 3.30712L5.75397 3.04558H6.20013L6.33859 2.6148ZM8.86169 2.6148L9.01554 3.04558H9.44631L9.09247 3.30712L9.23093 3.72251L8.86169 3.46097L8.50784 3.72251L8.64631 3.30712L8.27707 3.04558H8.73862L8.86169 2.6148ZM11.4002 2.6148L11.5386 3.04558H11.9848L11.631 3.30712L11.7694 3.72251L11.4002 3.46097L11.0463 3.72251L11.1848 3.30712L10.8156 3.04558H11.2617L11.4002 2.6148ZM13.9387 2.6148L14.0771 3.04558H14.5233L14.1541 3.30712L14.3079 3.72251L13.9387 3.46097L13.5694 3.72251L13.7233 3.30712L13.354 3.04558H13.8002L13.9387 2.6148ZM2.53855 3.69174L2.67702 4.12251H3.12318L2.75394 4.38405L2.90779 4.79944L2.53855 4.5379L2.16932 4.79944L2.32317 4.38405L1.95393 4.12251H2.40009L2.53855 3.69174ZM5.06166 3.69174L5.2155 4.12251H5.64628L5.29243 4.38405L5.43089 4.79944L5.06166 4.5379L4.70781 4.79944L4.84627 4.38405L4.47704 4.12251H4.93858L5.06166 3.69174ZM7.60014 3.69174L7.73861 4.12251H8.18476L7.83091 4.38405L7.96938 4.79944L7.60014 4.5379L7.24629 4.79944L7.38476 4.38405L7.01552 4.12251H7.46168L7.60014 3.69174ZM10.1386 3.69174L10.2771 4.12251H10.7233L10.354 4.38405L10.5079 4.79944L10.1386 4.5379L9.76939 4.79944L9.92324 4.38405L9.55401 4.12251H10.0002L10.1386 3.69174ZM12.6617 3.69174L12.8156 4.12251H13.231L12.8771 4.38405L13.0156 4.79944L12.6463 4.5379L12.2925 4.79944L12.431 4.38405L12.0617 4.12251H12.5233L12.6617 3.69174ZM1.277 4.76867L1.40008 5.19945H1.86163L1.49239 5.46099L1.63085 5.87638L1.26162 5.61483L0.923154 5.87638L1.06162 5.46099L0.692383 5.19945H1.15393L1.277 4.76867ZM3.80011 4.76867L3.93857 5.19945H4.38473L4.03088 5.46099L4.16934 5.87638L3.80011 5.61483L3.44626 5.87638L3.58472 5.46099L3.21548 5.19945H3.66164L3.80011 4.76867ZM6.33859 4.76867L6.47705 5.19945H6.92321L6.55398 5.46099L6.70783 5.87638L6.33859 5.61483L5.96936 5.87638L6.12321 5.46099L5.75397 5.19945H6.20013L6.33859 4.76867ZM8.86169 4.76867L9.01554 5.19945H9.44631L9.09247 5.46099L9.23093 5.87638L8.86169 5.61483L8.50784 5.87638L8.64631 5.46099L8.27707 5.19945H8.73862L8.86169 4.76867ZM11.4002 4.76867L11.5386 5.19945H11.9848L11.631 5.46099L11.7694 5.87638L11.4002 5.61483L11.0463 5.87638L11.1848 5.46099L10.8156 5.19945H11.2617L11.4002 4.76867ZM13.9387 4.76867L14.0771 5.19945H14.5233L14.1541 5.46099L14.3079 5.87638L13.9387 5.61483L13.5694 5.87638L13.7233 5.46099L13.354 5.19945H13.8002L13.9387 4.76867ZM2.53855 5.84561L2.67702 6.27638H3.12318L2.75394 6.53792L2.90779 6.95331L2.53855 6.69177L2.16932 6.95331L2.32317 6.53792L1.95393 6.27638H2.40009L2.53855 5.84561ZM5.06166 5.84561L5.2155 6.27638H5.64628L5.29243 6.53792L5.43089 6.95331L5.06166 6.69177L4.70781 6.95331L4.84627 6.53792L4.47704 6.27638H4.93858L5.06166 5.84561ZM7.60014 5.84561L7.73861 6.27638H8.18476L7.83091 6.53792L7.96938 6.95331L7.60014 6.69177L7.24629 6.95331L7.38476 6.53792L7.01552 6.27638H7.46168L7.60014 5.84561ZM10.1386 5.84561L10.2771 6.27638H10.7233L10.354 6.53792L10.5079 6.95331L10.1386 6.69177L9.76939 6.95331L9.92324 6.53792L9.55401 6.27638H10.0002L10.1386 5.84561ZM12.6617 5.84561L12.8156 6.27638H13.231L12.8771 6.53792L13.0156 6.95331L12.6463 6.69177L12.2925 6.95331L12.431 6.53792L12.0617 6.27638H12.5233L12.6617 5.84561ZM1.277 6.92254L1.40008 7.35331H1.86163L1.49239 7.61485L1.63085 8.03024L1.26162 7.7687L0.923154 8.03024L1.06162 7.61485L0.692383 7.35331H1.15393L1.277 6.92254ZM3.80011 6.92254L3.93857 7.35331H4.38473L4.03088 7.61485L4.16934 8.03024L3.80011 7.7687L3.44626 8.03024L3.58472 7.61485L3.21548 7.35331H3.66164L3.80011 6.92254ZM6.33859 6.92254L6.47705 7.35331H6.92321L6.55398 7.61485L6.70783 8.03024L6.33859 7.7687L5.96936 8.03024L6.12321 7.61485L5.75397 7.35331H6.20013L6.33859 6.92254ZM8.86169 6.92254L9.01554 7.35331H9.44631L9.09247 7.61485L9.23093 8.03024L8.86169 7.7687L8.50784 8.03024L8.64631 7.61485L8.27707 7.35331H8.73862L8.86169 6.92254ZM11.4002 6.92254L11.5386 7.35331H11.9848L11.631 7.61485L11.7694 8.03024L11.4002 7.7687L11.0463 8.03024L11.1848 7.61485L10.8156 7.35331H11.2617L11.4002 6.92254ZM13.9387 6.92254L14.0771 7.35331H14.5233L14.1541 7.61485L14.3079 8.03024L13.9387 7.7687L13.5694 8.03024L13.7233 7.61485L13.354 7.35331H13.8002L13.9387 6.92254ZM2.53855 7.99947L2.67702 8.43025H3.12318L2.75394 8.69179L2.90779 9.10718L2.53855 8.84564L2.16932 9.10718L2.32317 8.69179L1.95393 8.43025H2.40009L2.53855 7.99947ZM5.06166 7.99947L5.2155 8.43025H5.64628L5.29243 8.69179L5.43089 9.10718L5.06166 8.84564L4.70781 9.10718L4.84627 8.69179L4.47704 8.43025H4.93858L5.06166 7.99947ZM7.60014 7.99947L7.73861 8.43025H8.18476L7.83091 8.69179L7.96938 9.10718L7.60014 8.84564L7.24629 9.10718L7.38476 8.69179L7.01552 8.43025H7.46168L7.60014 7.99947ZM10.1386 7.99947L10.2771 8.43025H10.7233L10.354 8.69179L10.5079 9.10718L10.1386 8.84564L9.76939 9.10718L9.92324 8.69179L9.55401 8.43025H10.0002L10.1386 7.99947ZM12.6617 7.99947L12.8156 8.43025H13.231L12.8771 8.69179L13.0156 9.10718L12.6463 8.84564L12.2925 9.10718L12.431 8.69179L12.0617 8.43025H12.5233L12.6617 7.99947ZM1.277 9.07641L1.40008 9.50718H1.86163L1.49239 9.76872L1.63085 10.1841L1.26162 9.92257L0.923154 10.1841L1.06162 9.76872L0.692383 9.50718H1.15393L1.277 9.07641ZM3.80011 9.07641L3.93857 9.50718H4.38473L4.03088 9.76872L4.16934 10.1841L3.80011 9.92257L3.44626 10.1841L3.58472 9.76872L3.21548 9.50718H3.66164L3.80011 9.07641ZM6.33859 9.07641L6.47705 9.50718H6.92321L6.55398 9.76872L6.70783 10.1841L6.33859 9.92257L5.96936 10.1841L6.12321 9.76872L5.75397 9.50718H6.20013L6.33859 9.07641ZM8.86169 9.07641L9.01554 9.50718H9.44631L9.09247 9.76872L9.23093 10.1841L8.86169 9.92257L8.50784 10.1841L8.64631 9.76872L8.27707 9.50718H8.73862L8.86169 9.07641ZM11.4002 9.07641L11.5386 9.50718H11.9848L11.631 9.76872L11.7694 10.1841L11.4002 9.92257L11.0463 10.1841L11.1848 9.76872L10.8156 9.50718H11.2617L11.4002 9.07641ZM13.9387 9.07641L14.0771 9.50718H14.5233L14.1541 9.76872L14.3079 10.1841L13.9387 9.92257L13.5694 10.1841L13.7233 9.76872L13.354 9.50718H13.8002L13.9387 9.07641Z" fill="white"/>
</g>
<defs>
<clipPath id="clip0_766_7492">
<rect width="20" height="20" rx="10" fill="white"/>
</clipPath>
</defs>
</svg>
 