<svg xmlns="http://www.w3.org/2000/svg" width="30" height="30" fill="none" viewBox="0 0 30 30">
    <path fill="#ffffff" fill-rule="evenodd" d="M8.07 7.929c-.573.574-.573 1.505 0 2.08L13.064 15 8.07 19.992c-.574.574-.574 1.505 0 2.08.575.574 1.506.574 2.08 0l4.991-4.992 4.991 4.991c.575.574 1.506.574 2.08 0 .574-.574.574-1.505 0-2.08l-4.99-4.99 4.99-4.992c.575-.574.575-1.505 0-2.08-.574-.574-1.505-.574-2.08 0l-4.99 4.992-4.992-4.992c-.575-.574-1.506-.574-2.08 0z" clip-rule="evenodd"/>
    <path fill="#ffffff" d="M8.07 10.009l-.07.07.07-.07zM13.064 15l.07.071.071-.07-.07-.071-.071.07zm-2.912 7.072l.07.07-.07-.07zm4.991-4.992l.071-.07-.07-.071-.071.07.07.071zm4.991 4.991l.071-.07-.07.07zm2.08-2.08l-.07.071.07-.07zm-4.99-4.99l-.072-.071-.07.07.07.071.071-.07zm4.99-4.992l-.07-.07.07.07zm-7.07 2.912l-.071.07.07.071.071-.07-.07-.071zM10.15 7.929l-.071.07.07-.07zM8.14 9.938c-.535-.535-.535-1.403 0-1.938l-.14-.142c-.614.614-.614 1.608 0 2.221l.14-.141zm4.992 4.992L8.142 9.938 8 10.079l4.992 4.992.141-.141zm-4.991 5.132l4.991-4.99-.141-.142L8 19.92l.14.141zm0 1.939c-.535-.536-.535-1.403 0-1.939L8 19.921c-.614.613-.614 1.608 0 2.221l.14-.141zm1.938 0c-.535.535-1.403.535-1.938 0L8 22.142c.613.614 1.607.614 2.22 0l-.14-.141zm4.992-4.992l-4.992 4.992.142.141 4.991-4.991-.141-.142zM20.204 22l-4.991-4.99-.141.14 4.99 4.992.142-.142zm1.938 0c-.535.536-1.403.536-1.938 0l-.141.142c.613.613 1.607.613 2.22 0l-.14-.142zm0-1.938c.535.535.535 1.403 0 1.938l.142.142c.613-.614.613-1.608 0-2.221l-.142.141zm-4.99-4.99l4.99 4.99.142-.141-4.991-4.991-.142.141zm4.99-5.134l-4.99 4.992.14.141 4.992-4.991-.141-.142zm0-1.938c.536.535.536 1.403 0 1.938l.142.142c.613-.614.613-1.608 0-2.221L22.143 8zm-1.938 0c.536-.535 1.403-.535 1.939 0l.141-.141c-.613-.614-1.608-.614-2.221 0l.141.141zm-4.991 4.991L20.204 8l-.141-.141-4.991 4.99.141.142zM10.08 8l4.992 4.991.141-.141-4.992-4.992L10.08 8zM8.142 8c.535-.536 1.403-.536 1.938 0l.141-.142c-.613-.613-1.607-.613-2.22 0L8.14 8z"/>
</svg>
