<?xml version="1.0" encoding="UTF-8" standalone="no"?><!-- Generator: Gravit.io --><svg xmlns="http://www.w3.org/2000/svg" xmlns:xlink="http://www.w3.org/1999/xlink" style="isolation:isolate" viewBox="0 0 24 24" width="24pt" height="24pt"><defs><clipPath id="_clipPath_SdItduVZgUCL3peQixtQJLM5dKfTF15B"><rect width="24" height="24"/></clipPath></defs><g clip-path="url(#_clipPath_SdItduVZgUCL3peQixtQJLM5dKfTF15B)"><path d=" M 12 1.5 C 6.202 1.5 1.5 6.202 1.5 12 C 1.5 17.798 6.202 22.5 12 22.5 C 17.798 22.5 22.5 17.798 22.5 12 C 22.5 6.202 17.798 1.5 12 1.5 Z  M 15.877 15.989 L 14.33 15.982 L 12 13.205 L 9.673 15.98 L 8.123 15.987 C 8.02 15.987 7.936 15.905 7.936 15.799 C 7.936 15.755 7.952 15.712 7.98 15.677 L 11.03 12.045 L 7.98 8.414 C 7.952 8.38 7.936 8.337 7.936 8.292 C 7.936 8.189 8.02 8.105 8.123 8.105 L 9.673 8.112 L 12 10.889 L 14.327 8.114 L 15.874 8.107 C 15.977 8.107 16.062 8.189 16.062 8.295 C 16.062 8.339 16.045 8.381 16.017 8.416 L 12.973 12.047 L 16.02 15.68 C 16.048 15.715 16.064 15.757 16.064 15.802 C 16.064 15.905 15.98 15.989 15.877 15.989 Z " fill-rule="evenodd" fill="rgb(232,67,13)"/></g></svg>