<svg xmlns="http://www.w3.org/2000/svg" width="20" height="20" fill="none" viewBox="0 0 20 20">
    <path fill="#FF4B40" fill-rule="evenodd" d="M20 10c0 5.523-4.477 10-10 10S0 15.523 0 10 4.477 0 10 0s10 4.477 10 10zm-11.75.722c0 .798.647 1.444 1.444 1.444h.582c.797 0 1.444-.646 1.444-1.444V5.235c0-.958-.777-1.735-1.735-1.735-.958 0-1.735.777-1.735 1.735v5.487zM9.983 16.5c-.957 0-1.733-.776-1.733-1.733 0-.958.776-1.734 1.733-1.734.958 0 1.734.776 1.734 1.734 0 .957-.776 1.733-1.734 1.733z" clip-rule="evenodd"/>
</svg>
