<svg width="16" height="16" viewBox="0 0 16 16" fill="none" xmlns="http://www.w3.org/2000/svg">
<path fill-rule="evenodd" clip-rule="evenodd" d="M0.700195 8.00068C0.700195 3.96889 3.9684 0.700684 8.0002 0.700684C12.032 0.700684 15.3002 3.96889 15.3002 8.00068C15.3002 12.0325 12.032 15.3007 8.0002 15.3007C3.9684 15.3007 0.700195 12.0325 0.700195 8.00068ZM8.0002 1.80068C6.35585 1.80068 4.77886 2.4539 3.61613 3.61662C2.45341 4.77935 1.8002 6.35634 1.8002 8.00068C1.8002 9.64503 2.45341 11.222 3.61613 12.3847C4.77886 13.5475 6.35585 14.2007 8.0002 14.2007C9.64454 14.2007 11.2215 13.5475 12.3843 12.3847C13.547 11.222 14.2002 9.64503 14.2002 8.00068C14.2002 6.35634 13.547 4.77935 12.3843 3.61662C11.2215 2.4539 9.64454 1.80068 8.0002 1.80068ZM7.45019 5.55068V4.45068H8.5502V5.55068H7.45019ZM7.45019 11.5507V7.45068H8.5502V11.5507H7.45019Z" fill="#8247E5"/>
</svg>
