<svg xmlns="http://www.w3.org/2000/svg" width="16" height="16" viewBox="0 0 16 16">
    <path fill="#0899F5" fill-rule="evenodd" d="M8 16c4.418 0 8-3.582 8-8s-3.582-8-8-8-8 3.582-8 8 3.582 8 8 8zm.31-10.135H7.04c-.574 0-1.04.465-1.04 1.04 0 .574.466 1.04 1.04 1.04h.345v3.813c0 .574.466 1.04 1.04 1.04.575 0 1.04-.466 1.04-1.04V7.02c0-.638-.517-1.155-1.155-1.155zm-1.615-2.08c0-.766.62-1.387 1.386-1.387.766 0 1.387.62 1.387 1.387 0 .765-.62 1.386-1.387 1.386-.765 0-1.386-.62-1.386-1.386z" clip-rule="evenodd"/>
</svg>
