<svg width="24" height="11" viewBox="0 0 24 11" fill="none" xmlns="http://www.w3.org/2000/svg">
<rect x="9.98438" y="4.72266" width="1.3" height="9.98512" transform="rotate(90 9.98438 4.72266)" fill="#081132"/>
<rect x="7.25" y="0.806641" width="5.24907" height="1.3" transform="rotate(45 7.25 0.806641)" fill="#081132"/>
<rect x="5.91797" y="9.49902" width="7.08628" height="1.3" transform="rotate(-45 5.91797 9.49902)" fill="#081132"/>
<path fill-rule="evenodd" clip-rule="evenodd" d="M16.1937 1.2002H14.8438V10.0502H20.2063V8.8002H16.1937V1.2002ZM23.9105 1.2002H22.595L22.5822 1.20899C22.3184 1.39034 22.0213 1.55551 21.6905 1.70438C21.3598 1.84489 21.0594 1.93935 20.7891 1.9885L20.748 1.99597V3.32059L20.8053 3.31216C21.0922 3.26997 21.4118 3.18998 21.7639 3.07264L21.7649 3.07228C22.0789 2.96013 22.3443 2.84082 22.5605 2.71406V10.0502H23.9105V1.2002Z" fill="#081132"/>
</svg>
