<svg width="20" height="20" viewBox="0 0 20 20" fill="none" xmlns="http://www.w3.org/2000/svg">
<path d="M16.9526 14.295H15.5795C15.4858 14.295 15.3979 14.336 15.3393 14.4082C15.2026 14.5742 15.0561 14.7344 14.9018 14.8867C14.2707 15.5184 13.5232 16.0219 12.7006 16.3692C11.8484 16.7291 10.9324 16.9138 10.0073 16.9121C9.07172 16.9121 8.16547 16.7285 7.31391 16.3692C6.49131 16.0219 5.74381 15.5184 5.11274 14.8867C4.48054 14.2572 3.97644 13.511 3.62836 12.6895C3.26704 11.8379 3.0854 10.9336 3.0854 9.99808C3.0854 9.06253 3.26899 8.15823 3.62836 7.30667C3.97602 6.48441 4.47602 5.74417 5.11274 5.1094C5.74946 4.47464 6.48969 3.97464 7.31391 3.62698C8.16547 3.26761 9.07172 3.08401 10.0073 3.08401C10.9428 3.08401 11.8491 3.26565 12.7006 3.62698C13.5248 3.97464 14.2651 4.47464 14.9018 5.1094C15.0561 5.2637 15.2006 5.42386 15.3393 5.58792C15.3979 5.66019 15.4877 5.7012 15.5795 5.7012H16.9526C17.0756 5.7012 17.1518 5.56448 17.0834 5.46097C15.5854 3.13284 12.9643 1.59183 9.98579 1.59964C5.3061 1.61136 1.55415 5.41019 1.60102 10.084C1.6479 14.6836 5.39399 18.3965 10.0073 18.3965C12.978 18.3965 15.5873 16.8575 17.0834 14.5352C17.1498 14.4317 17.0756 14.295 16.9526 14.295ZM18.6889 9.87503L15.9174 7.68753C15.8139 7.6055 15.6635 7.67972 15.6635 7.81058V9.29495H9.53071C9.44477 9.29495 9.37446 9.36526 9.37446 9.4512V10.545C9.37446 10.6309 9.44477 10.7012 9.53071 10.7012H15.6635V12.1856C15.6635 12.3164 15.8159 12.3907 15.9174 12.3086L18.6889 10.1211C18.7076 10.1065 18.7227 10.0878 18.7331 10.0665C18.7435 10.0452 18.7489 10.0218 18.7489 9.99808C18.7489 9.97436 18.7435 9.95096 18.7331 9.92964C18.7227 9.90832 18.7076 9.88965 18.6889 9.87503Z" fill="#7B3FE4"/>
</svg>
