<svg width="16" height="16" viewBox="0 0 16 16" fill="none" xmlns="http://www.w3.org/2000/svg">
<path d="M15.3444 14.2687L11.1055 10.0298C11.8926 9.01221 12.3184 7.76807 12.3184 6.45947C12.3184 4.89307 11.707 3.42432 10.6016 2.31689C9.49609 1.20947 8.02344 0.600098 6.45898 0.600098C4.89453 0.600098 3.42187 1.21143 2.31641 2.31689C1.20898 3.42236 0.599609 4.89307 0.599609 6.45947C0.599609 8.02393 1.21094 9.49658 2.31641 10.602C3.42187 11.7095 4.89258 12.3188 6.45898 12.3188C7.76758 12.3188 9.00977 11.8931 10.0273 11.1079L14.2663 15.3449C14.2811 15.3598 14.2988 15.3716 14.3182 15.3796C14.3377 15.3877 14.3585 15.3918 14.3796 15.3918C14.4006 15.3918 14.4214 15.3877 14.4409 15.3796C14.4603 15.3716 14.478 15.3598 14.4928 15.3449L15.3444 14.4953C15.3593 14.4804 15.3711 14.4627 15.3791 14.4433C15.3872 14.4239 15.3913 14.403 15.3913 14.382C15.3913 14.361 15.3872 14.3401 15.3791 14.3207C15.3711 14.3013 15.3593 14.2836 15.3444 14.2687ZM9.55273 9.55322C8.72461 10.3794 7.62695 10.8345 6.45898 10.8345C5.29102 10.8345 4.19336 10.3794 3.36523 9.55322C2.53906 8.7251 2.08398 7.62744 2.08398 6.45947C2.08398 5.2915 2.53906 4.19189 3.36523 3.36572C4.19336 2.53955 5.29102 2.08447 6.45898 2.08447C7.62695 2.08447 8.72656 2.5376 9.55273 3.36572C10.3789 4.19385 10.834 5.2915 10.834 6.45947C10.834 7.62744 10.3789 8.72705 9.55273 9.55322Z" fill="#081132"/>
</svg>
