<svg width="40" height="40" viewBox="0 0 40 40" fill="none" xmlns="http://www.w3.org/2000/svg">
<path d="M33.3018 9.39456L22.5339 3.17451C21.7626 2.73253 20.8892 2.5 20.0002 2.5C19.1113 2.5 18.2379 2.73253 17.4666 3.17451L6.69866 9.39456C5.92818 9.83944 5.28839 10.4793 4.84364 11.2498C4.39888 12.0203 4.16484 12.8944 4.16504 13.7841V26.2496C4.17148 27.1327 4.40866 27.999 4.85309 28.7622C5.29751 29.5256 5.93373 30.1594 6.69866 30.6011L17.4666 36.8211C18.2369 37.2659 19.1107 37.5 20.0002 37.5C20.8897 37.5 21.7635 37.2659 22.5339 36.8211L33.3018 30.6011C34.0723 30.1562 34.712 29.5164 35.1568 28.7458C35.6016 27.9753 35.8356 27.1012 35.8354 26.2116V13.7461C35.829 12.8629 35.5918 11.9966 35.1474 11.2333C34.7029 10.4701 34.0667 9.83619 33.3018 9.39456ZM6.69866 13.7841C6.69804 13.3387 6.81479 12.901 7.03716 12.5151C7.2596 12.1293 7.57979 11.8089 7.96548 11.5862L18.7334 5.37243C19.118 5.14849 19.5552 5.03052 20.0002 5.03052C20.4453 5.03052 20.8824 5.14849 21.267 5.37243L32.035 11.5862C32.4152 11.8056 32.7318 12.1201 32.9539 12.4987C33.1759 12.8773 33.2959 13.3072 33.3018 13.7461V15.0129C33.2984 15.9991 32.9048 16.9438 32.2069 17.6405C31.5089 18.3372 30.5635 18.7293 29.5774 18.731H10.4231C9.08054 18.7278 7.77329 19.1613 6.69866 19.9661V13.7841ZM33.3018 26.2116C33.3024 26.6569 33.1857 27.0946 32.9633 27.4805C32.7409 27.8663 32.4207 28.1868 32.035 28.4094L21.267 34.6232C20.8819 34.8456 20.445 34.9626 20.0002 34.9626C19.5555 34.9626 19.1186 34.8456 18.7334 34.6232L7.96548 28.4094C7.58529 28.19 7.26866 27.8756 7.0466 27.4969C6.82454 27.1183 6.7046 26.6884 6.69866 26.2496V24.9827C6.70204 23.9966 7.09566 23.0518 7.7936 22.3551C8.49154 21.6584 9.43691 21.2663 10.4231 21.2646H29.5774C30.9199 21.2678 32.2272 20.8343 33.3018 20.0295V26.2116Z" fill="#7B3FE4"/>
<path d="M14.1098 13.1508H16.5674V16.8309H19.101V13.1508C19.101 12.4789 18.8341 11.8344 18.359 11.3592C17.8839 10.8841 17.2394 10.6172 16.5674 10.6172H14.1098C13.4379 10.6172 12.7934 10.8841 12.3182 11.3592C11.8431 11.8344 11.5762 12.4789 11.5762 13.1508V16.8309H14.1098V13.1508Z" fill="#7B3FE4"/>
<path d="M16.5674 26.8446H14.1098V23.1646H11.5762V26.8446C11.5762 27.5166 11.8431 28.1611 12.3182 28.6362C12.7934 29.1113 13.4379 29.3782 14.1098 29.3782H16.5674C17.2394 29.3782 17.8839 29.1113 18.359 28.6362C18.8341 28.1611 19.101 27.5166 19.101 26.8446V23.1646H16.5674V26.8446Z" fill="#7B3FE4"/>
<path d="M24.0923 13.1508H26.5562V16.8309H29.0898V13.1508C29.0898 12.4789 28.8229 11.8344 28.3478 11.3592C27.8726 10.8841 27.2282 10.6172 26.5562 10.6172H24.0923C23.4203 10.6172 22.7758 10.8841 22.3007 11.3592C21.8255 11.8344 21.5586 12.4789 21.5586 13.1508V16.8309H24.0923V13.1508Z" fill="#7B3FE4"/>
<path d="M26.5562 26.8446H24.0923V23.1646H21.5586V26.8446C21.5586 27.5166 21.8255 28.1611 22.3007 28.6362C22.7758 29.1113 23.4203 29.3782 24.0923 29.3782H26.5562C27.2282 29.3782 27.8726 29.1113 28.3478 28.6362C28.8229 28.1611 29.0898 27.5166 29.0898 26.8446V23.1646H26.5562V26.8446Z" fill="#7B3FE4"/>
</svg>
