<svg width="20" height="20" viewBox="0 0 20 20" fill="none" xmlns="http://www.w3.org/2000/svg">
<path d="M17.56 3.97227L11.44 0.43707C11.0017 0.185871 10.5052 0.0537109 10 0.0537109C9.49478 0.0537109 8.99835 0.185871 8.56001 0.43707L2.44 3.97227C2.00209 4.22512 1.63846 4.58876 1.38569 5.02671C1.13291 5.46463 0.999886 5.96141 1 6.46706V13.5519C1.00366 14.0539 1.13847 14.5462 1.39106 14.98C1.64365 15.4138 2.00525 15.7741 2.44 16.0251L8.56001 19.5603C8.99782 19.8131 9.49446 19.9461 10 19.9461C10.5056 19.9461 11.0022 19.8131 11.44 19.5603L17.56 16.0251C17.9979 15.7722 18.3615 15.4086 18.6143 14.9706C18.8671 14.5327 19.0001 14.036 19 13.5303V6.44547C18.9964 5.9435 18.8616 5.45117 18.609 5.01733C18.3564 4.58354 17.9948 4.22327 17.56 3.97227ZM2.44 6.46706C2.43964 6.21393 2.506 5.96517 2.63239 5.74586C2.75881 5.52654 2.94079 5.34446 3.16 5.21789L9.28001 1.68627C9.49861 1.559 9.74705 1.49194 10 1.49194C10.253 1.49194 10.5014 1.559 10.72 1.68627L16.84 5.21789C17.0561 5.34261 17.2361 5.52132 17.3623 5.73651C17.4885 5.95171 17.5566 6.19603 17.56 6.44547V7.16546C17.5581 7.72597 17.3344 8.26292 16.9377 8.65889C16.541 9.05489 16.0037 9.27772 15.4432 9.27868H4.5568C3.79375 9.27687 3.05077 9.52325 2.44 9.98067V6.46706ZM17.56 13.5303C17.5604 13.7834 17.494 14.0322 17.3676 14.2515C17.2412 14.4708 17.0592 14.6529 16.84 14.7795L10.72 18.3111C10.5011 18.4375 10.2528 18.504 10 18.504C9.74723 18.504 9.49893 18.4375 9.28001 18.3111L3.16 14.7795C2.94392 14.6547 2.76396 14.476 2.63775 14.2608C2.51154 14.0456 2.44337 13.8013 2.44 13.5519V12.8319C2.44192 12.2714 2.66564 11.7344 3.06231 11.3384C3.45899 10.9425 3.9963 10.7196 4.5568 10.7187H15.4432C16.2063 10.7205 16.9492 10.4741 17.56 10.0167V13.5303Z" fill="#7B3FE4"/>
<path d="M6.65289 6.10699H8.04969V8.19861H9.48969V6.10699C9.48969 5.72509 9.33798 5.35882 9.06794 5.08875C8.7979 4.81871 8.43163 4.66699 8.04969 4.66699H6.65289C6.27099 4.66699 5.90472 4.81871 5.63465 5.08875C5.36461 5.35882 5.21289 5.72509 5.21289 6.10699V8.19861H6.65289V6.10699Z" fill="#7B3FE4"/>
<path d="M8.04969 13.8904H6.65289V11.7988H5.21289V13.8904C5.21289 14.2723 5.36461 14.6386 5.63465 14.9087C5.90472 15.1787 6.27099 15.3304 6.65289 15.3304H8.04969C8.43163 15.3304 8.7979 15.1787 9.06794 14.9087C9.33798 14.6386 9.48969 14.2723 9.48969 13.8904V11.7988H8.04969V13.8904Z" fill="#7B3FE4"/>
<path d="M12.3248 6.10699H13.7252V8.19861H15.1652V6.10699C15.1652 5.72509 15.0135 5.35882 14.7434 5.08875C14.4734 4.81871 14.1071 4.66699 13.7252 4.66699H12.3248C11.9429 4.66699 11.5766 4.81871 11.3066 5.08875C11.0365 5.35882 10.8848 5.72509 10.8848 6.10699V8.19861H12.3248V6.10699Z" fill="#7B3FE4"/>
<path d="M13.7252 13.8904H12.3248V11.7988H10.8848V13.8904C10.8848 14.2723 11.0365 14.6386 11.3066 14.9087C11.5766 15.1787 11.9429 15.3304 12.3248 15.3304H13.7252C14.1071 15.3304 14.4734 15.1787 14.7434 14.9087C15.0135 14.6386 15.1652 14.2723 15.1652 13.8904V11.7988H13.7252V13.8904Z" fill="#7B3FE4"/>
</svg>
