<svg width="18" height="18" viewBox="0 0 18 18" fill="none" xmlns="http://www.w3.org/2000/svg">
<path d="M7.96875 0H0.75C0.335156 0 0 0.335156 0 0.75V7.96875C0 8.07187 0.084375 8.15625 0.1875 8.15625H7.96875C8.07187 8.15625 8.15625 8.07187 8.15625 7.96875V0.1875C8.15625 0.084375 8.07187 0 7.96875 0ZM6.65625 6.65625H1.5V1.5H6.65625V6.65625ZM3.42188 4.92188H4.73438C4.8375 4.92188 4.92188 4.8375 4.92188 4.73438V3.42188C4.92188 3.31875 4.8375 3.23438 4.73438 3.23438H3.42188C3.31875 3.23438 3.23438 3.31875 3.23438 3.42188V4.73438C3.23438 4.8375 3.31875 4.92188 3.42188 4.92188ZM7.96875 9.84375H0.1875C0.084375 9.84375 0 9.92813 0 10.0312V17.25C0 17.6648 0.335156 18 0.75 18H7.96875C8.07187 18 8.15625 17.9156 8.15625 17.8125V10.0312C8.15625 9.92813 8.07187 9.84375 7.96875 9.84375ZM6.65625 16.5H1.5V11.3438H6.65625V16.5ZM3.42188 14.7656H4.73438C4.8375 14.7656 4.92188 14.6812 4.92188 14.5781V13.2656C4.92188 13.1625 4.8375 13.0781 4.73438 13.0781H3.42188C3.31875 13.0781 3.23438 13.1625 3.23438 13.2656V14.5781C3.23438 14.6812 3.31875 14.7656 3.42188 14.7656ZM17.25 0H10.0312C9.92813 0 9.84375 0.084375 9.84375 0.1875V7.96875C9.84375 8.07187 9.92813 8.15625 10.0312 8.15625H17.8125C17.9156 8.15625 18 8.07187 18 7.96875V0.75C18 0.335156 17.6648 0 17.25 0ZM16.5 6.65625H11.3438V1.5H16.5V6.65625ZM13.2656 4.92188H14.5781C14.6812 4.92188 14.7656 4.8375 14.7656 4.73438V3.42188C14.7656 3.31875 14.6812 3.23438 14.5781 3.23438H13.2656C13.1625 3.23438 13.0781 3.31875 13.0781 3.42188V4.73438C13.0781 4.8375 13.1625 4.92188 13.2656 4.92188ZM17.8125 9.84375H16.6875C16.5844 9.84375 16.5 9.92813 16.5 10.0312V13.1719H14.6719V10.0312C14.6719 9.92813 14.5875 9.84375 14.4844 9.84375H10.0312C9.92813 9.84375 9.84375 9.92813 9.84375 10.0312V17.8125C9.84375 17.9156 9.92813 18 10.0312 18H11.1562C11.2594 18 11.3438 17.9156 11.3438 17.8125V12.0938H13.1719V14.4844C13.1719 14.5875 13.2563 14.6719 13.3594 14.6719H17.8125C17.9156 14.6719 18 14.5875 18 14.4844V10.0312C18 9.92813 17.9156 9.84375 17.8125 9.84375ZM14.4844 16.5H13.3594C13.2563 16.5 13.1719 16.5844 13.1719 16.6875V17.8125C13.1719 17.9156 13.2563 18 13.3594 18H14.4844C14.5875 18 14.6719 17.9156 14.6719 17.8125V16.6875C14.6719 16.5844 14.5875 16.5 14.4844 16.5ZM17.8125 16.5H16.6875C16.5844 16.5 16.5 16.5844 16.5 16.6875V17.8125C16.5 17.9156 16.5844 18 16.6875 18H17.8125C17.9156 18 18 17.9156 18 17.8125V16.6875C18 16.5844 17.9156 16.5 17.8125 16.5Z" fill="#081132"/>
</svg>
