<svg width="16" height="16" viewBox="0 0 16 16" fill="none" xmlns="http://www.w3.org/2000/svg">
<g clip-path="url(#clip0_677_12138)">
<path d="M6.03983e-07 8C6.51178e-07 6.92031 0.210938 5.87188 0.628126 4.88594C1.03125 3.93281 1.60938 3.07812 2.34375 2.34375C3.07813 1.60937 3.93281 1.03125 4.88594 0.628125C5.87188 0.210937 6.92031 -3.96886e-07 8 -3.49691e-07C8.31094 -3.361e-07 8.5625 0.251562 8.5625 0.5625C8.5625 0.873437 8.31094 1.125 8 1.125C7.07188 1.125 6.17188 1.30625 5.32344 1.66562C4.50469 2.0125 3.76875 2.50781 3.1375 3.13906C2.50625 3.77031 2.00938 4.50625 1.66406 5.325C1.30625 6.17187 1.125 7.07188 1.125 8C1.125 8.92813 1.30625 9.82813 1.66563 10.6766C2.0125 11.4953 2.50781 12.2313 3.13906 12.8625C3.77031 13.4938 4.50625 13.9906 5.325 14.3359C6.17187 14.6938 7.07187 14.875 8 14.875C8.92812 14.875 9.82812 14.6938 10.6766 14.3344C11.4933 13.9887 12.2356 13.4884 12.8625 12.8609C13.4908 12.2347 13.9912 11.4923 14.3359 10.675C14.6937 9.82813 14.875 8.92813 14.875 8C14.875 7.68906 15.1266 7.4375 15.4375 7.4375C15.7484 7.4375 16 7.68906 16 8C16 9.07969 15.7891 10.1281 15.3719 11.1141C14.9687 12.0672 14.3906 12.9219 13.6562 13.6563C12.9219 14.3906 12.0656 14.9672 11.1141 15.3703C10.1281 15.7875 9.07969 15.9984 8 15.9984C6.92031 15.9984 5.87188 15.7875 4.88594 15.3703C3.93281 14.9688 3.07813 14.3906 2.34375 13.6563C1.60938 12.9219 1.03281 12.0656 0.629688 11.1141C0.210938 10.1281 5.56789e-07 9.07969 6.03983e-07 8Z" fill="#081132"/>
</g>
<defs>
<clipPath id="clip0_677_12138">
<rect width="16" height="16" fill="white" transform="translate(16) rotate(90)"/>
</clipPath>
</defs>
</svg>
