<svg width="18" height="18" viewBox="0 0 18 18" fill="none" xmlns="http://www.w3.org/2000/svg">
<path d="M16.3444 15.2687L12.1055 11.0298C12.8926 10.0122 13.3184 8.76807 13.3184 7.45947C13.3184 5.89307 12.707 4.42432 11.6016 3.31689C10.4961 2.20947 9.02344 1.6001 7.45898 1.6001C5.89453 1.6001 4.42187 2.21143 3.31641 3.31689C2.20898 4.42236 1.59961 5.89307 1.59961 7.45947C1.59961 9.02393 2.21094 10.4966 3.31641 11.602C4.42187 12.7095 5.89258 13.3188 7.45898 13.3188C8.76758 13.3188 10.0098 12.8931 11.0273 12.1079L15.2663 16.3449C15.2811 16.3598 15.2988 16.3716 15.3182 16.3796C15.3377 16.3877 15.3585 16.3918 15.3796 16.3918C15.4006 16.3918 15.4214 16.3877 15.4409 16.3796C15.4603 16.3716 15.478 16.3598 15.4928 16.3449L16.3444 15.4953C16.3593 15.4804 16.3711 15.4627 16.3791 15.4433C16.3872 15.4239 16.3913 15.403 16.3913 15.382C16.3913 15.361 16.3872 15.3401 16.3791 15.3207C16.3711 15.3013 16.3593 15.2836 16.3444 15.2687ZM10.5527 10.5532C9.72461 11.3794 8.62695 11.8345 7.45898 11.8345C6.29102 11.8345 5.19336 11.3794 4.36523 10.5532C3.53906 9.7251 3.08398 8.62744 3.08398 7.45947C3.08398 6.2915 3.53906 5.19189 4.36523 4.36572C5.19336 3.53955 6.29102 3.08447 7.45898 3.08447C8.62695 3.08447 9.72656 3.5376 10.5527 4.36572C11.3789 5.19385 11.834 6.2915 11.834 7.45947C11.834 8.62744 11.3789 9.72705 10.5527 10.5532Z" fill="#081132"/>
</svg>
