<svg xmlns="http://www.w3.org/2000/svg" width="16" height="16" fill="none" viewBox="0 0 16 16">
    <path fill="#219653" d="M8.012 0C6.96-.001 5.918.205 4.946.606c-.972.402-1.855.991-2.599 1.734-.744.743-1.334 1.625-1.737 2.596C.207 5.908 0 6.95 0 8c0 1.051.207 2.092.61 3.063.403.972.993 1.854 1.737 2.597.744.743 1.627 1.332 2.6 1.734.971.401 2.013.607 3.064.606 2.12-.004 4.152-.848 5.65-2.348C15.16 12.152 16 10.119 16 8c0-2.12-.841-4.152-2.339-5.652S10.131.004 8.011 0z"/>
    <path fill="#fff" d="M7.239 10.982c-.182 0-.358-.057-.504-.163l-.009-.007L4.83 9.397c-.177-.133-.293-.33-.322-.545-.03-.217.03-.435.167-.608.136-.173.336-.287.558-.315.221-.029.446.03.623.162l1.229.92 2.904-3.697c.067-.086.151-.157.247-.211.096-.054.201-.09.311-.104.11-.014.221-.007.328.021.107.028.207.076.295.142l-.018.024.019-.024c.177.133.293.329.322.545.03.216-.03.435-.166.608L7.91 10.661c-.079.1-.18.18-.297.236-.116.056-.244.085-.373.084l-.001.001z"/>
</svg>
