<svg width="28" height="11" viewBox="0 0 28 11" fill="none" xmlns="http://www.w3.org/2000/svg">
<rect x="9.98438" y="4.72266" width="1.3" height="9.98512" transform="rotate(90 9.98438 4.72266)" fill="#081132"/>
<rect x="7.25" y="0.806641" width="5.24907" height="1.3" transform="rotate(45 7.25 0.806641)" fill="#081132"/>
<rect x="5.91797" y="9.49902" width="7.08628" height="1.3" transform="rotate(-45 5.91797 9.49902)" fill="#081132"/>
<path fill-rule="evenodd" clip-rule="evenodd" d="M24.0355 1.0249C23.5033 1.0249 23.0122 1.139 22.5632 1.36768C22.1138 1.5882 21.7488 1.90669 21.4689 2.32217C21.1967 2.73053 21.0485 3.20619 21.0231 3.74756L21.0213 3.78693L22.2855 4.15398V4.0874C22.2855 3.5401 22.4526 3.10358 22.7834 2.77276C23.115 2.44116 23.5311 2.2749 24.0355 2.2749C24.5158 2.2749 24.9025 2.42504 25.2002 2.72277L25.2012 2.7237C25.5075 3.01393 25.6605 3.37564 25.6605 3.8124C25.6605 4.13888 25.5953 4.43549 25.4656 4.70309C25.3343 4.97383 25.1704 5.21556 24.9738 5.42849C24.7756 5.64318 24.4935 5.90876 24.1275 6.22487L21.1855 8.81481V10.0499H27.023V8.7999H23.1302L25.0684 7.08757C25.4942 6.72021 25.8375 6.38961 26.0977 6.09585C26.368 5.80012 26.5875 5.46231 26.7562 5.08271C26.9261 4.7005 27.0105 4.27261 27.0105 3.7999C27.0105 3.27458 26.8791 2.7988 26.6157 2.37387C26.3608 1.94911 26.0039 1.61795 25.5462 1.38061C25.0967 1.14316 24.5928 1.0249 24.0355 1.0249ZM16.1937 1.1999H14.8438V10.0499H20.2063V8.7999H16.1937V1.1999Z" fill="#081132"/>
</svg>
