<svg width="18" height="15" viewBox="0 0 18 15" fill="none" xmlns="http://www.w3.org/2000/svg">
<path d="M9.64945 1.24997L16.7939 13.625C16.8598 13.739 16.8944 13.8683 16.8944 14C16.8944 14.1316 16.8598 14.2609 16.794 14.375C16.7281 14.489 16.6335 14.5837 16.5194 14.6495C16.4054 14.7153 16.2761 14.75 16.1444 14.75H1.85545C1.7238 14.75 1.59447 14.7153 1.48046 14.6495C1.36644 14.5837 1.27177 14.489 1.20594 14.375C1.14012 14.2609 1.10547 14.1316 1.10547 14C1.10547 13.8683 1.14012 13.739 1.20595 13.625L8.35045 1.24997C8.41628 1.13596 8.51096 1.04129 8.62497 0.975471C8.73898 0.909651 8.8683 0.875 8.99995 0.875C9.1316 0.875 9.26092 0.909651 9.37493 0.975471C9.48894 1.04129 9.58362 1.13596 9.64945 1.24997ZM3.15445 13.25H14.8454L8.99995 3.12497L3.15445 13.25ZM8.24995 11H9.74995V12.5H8.24995V11ZM8.24995 5.74997H9.74995V9.49997H8.24995V5.74997Z" fill="#8247E5" stroke="#F0F1F6" stroke-width="0.4"/>
</svg>
