<svg width="234" height="122" viewBox="0 0 234 122" fill="none" xmlns="http://www.w3.org/2000/svg">
<path d="M144.933 19.7286L122.321 6.66646C120.701 5.73832 118.867 5.25 117 5.25C115.133 5.25 113.299 5.73832 111.679 6.66646L89.0667 19.7286C87.4487 20.6628 86.1051 22.0064 85.1712 23.6246C84.2372 25.2427 83.7457 27.0782 83.7461 28.9465V55.1241C83.7596 56.9788 84.2577 58.7979 85.191 60.4007C86.1243 62.0037 87.4603 63.3348 89.0667 64.2622L111.679 77.3244C113.297 78.2583 115.132 78.75 117 78.75C118.868 78.75 120.703 78.2583 122.321 77.3244L144.933 64.2622C146.551 63.328 147.895 61.9844 148.829 60.3662C149.763 58.748 150.254 56.9126 150.254 55.0443V28.8667C150.24 27.012 149.742 25.1929 148.809 23.59C147.876 21.9871 146.54 20.656 144.933 19.7286ZM89.0667 28.9465C89.0654 28.0112 89.3106 27.0921 89.7776 26.2818C90.2447 25.4714 90.9171 24.7986 91.727 24.331L114.34 11.2821C115.147 10.8118 116.065 10.5641 117 10.5641C117.935 10.5641 118.853 10.8118 119.66 11.2821L142.273 24.331C143.071 24.7918 143.736 25.4521 144.203 26.2472C144.669 27.0424 144.921 27.9451 144.933 28.8667V31.527C144.926 33.598 144.1 35.582 142.634 37.0451C141.168 38.5082 139.183 39.3316 137.112 39.3351H96.888C94.0686 39.3284 91.3234 40.2388 89.0667 41.9289V28.9465ZM144.933 55.0443C144.935 55.9796 144.689 56.8987 144.222 57.7091C143.755 58.5193 143.083 59.1922 142.273 59.6598L119.66 72.7087C118.851 73.1757 117.934 73.4215 117 73.4215C116.066 73.4215 115.149 73.1757 114.34 72.7087L91.727 59.6598C90.9286 59.199 90.2637 58.5387 89.7974 57.7436C89.331 56.9485 89.0792 56.0457 89.0667 55.1241V52.4638C89.0738 50.3928 89.9004 48.4088 91.3661 46.9456C92.8317 45.4826 94.817 44.6593 96.888 44.6557H137.112C139.931 44.6624 142.677 43.7521 144.933 42.062V55.0443Z" fill="#7B3FE4"/>
<path d="M104.629 27.6165H109.79V35.3448H115.111V27.6165C115.111 26.2054 114.55 24.8521 113.552 23.8542C112.555 22.8565 111.201 22.2959 109.79 22.2959H104.629C103.218 22.2959 101.865 22.8565 100.867 23.8542C99.8692 24.8521 99.3086 26.2054 99.3086 27.6165V35.3448H104.629V27.6165Z" fill="#7B3FE4"/>
<path d="M109.79 56.3736H104.629V48.6455H99.3086V56.3736C99.3086 57.7848 99.8692 59.1382 100.867 60.1359C101.865 61.1337 103.218 61.6942 104.629 61.6942H109.79C111.201 61.6942 112.555 61.1337 113.552 60.1359C114.55 59.1382 115.111 57.7848 115.111 56.3736V48.6455H109.79V56.3736Z" fill="#7B3FE4"/>
<path d="M125.593 27.6165H130.767V35.3448H136.088V27.6165C136.088 26.2054 135.528 24.8521 134.53 23.8542C133.532 22.8565 132.179 22.2959 130.767 22.2959H125.593C124.182 22.2959 122.829 22.8565 121.831 23.8542C120.833 24.8521 120.272 26.2054 120.272 27.6165V35.3448H125.593V27.6165Z" fill="#7B3FE4"/>
<path d="M130.767 56.3736H125.593V48.6455H120.272V56.3736C120.272 57.7848 120.833 59.1382 121.831 60.1359C122.829 61.1337 124.182 61.6942 125.593 61.6942H130.767C132.179 61.6942 133.532 61.1337 134.53 60.1359C135.528 59.1382 136.088 57.7848 136.088 56.3736V48.6455H130.767V56.3736Z" fill="#7B3FE4"/>
<path d="M0 99.0814H4.44416V100.862C4.94858 100.204 5.609 99.6867 6.36423 99.3565C7.22186 98.9852 8.14749 98.8018 9.08032 98.8183C10.4536 98.7865 11.8084 99.1469 12.9885 99.8583C14.1121 100.566 15.0077 101.589 15.5646 102.804C16.2006 104.198 16.5126 105.72 16.4766 107.255C16.509 108.785 16.1742 110.3 15.5005 111.67C14.8825 112.893 13.9337 113.913 12.7645 114.611C11.5308 115.329 10.1272 115.692 8.70431 115.663C7.85268 115.674 7.00665 115.52 6.21222 115.21C5.527 114.951 4.92058 114.516 4.45216 113.948V122H0V99.0814ZM5.27619 110.516C5.635 110.927 6.07942 111.252 6.57744 111.467C7.07585 111.683 7.61507 111.784 8.15629 111.763C8.69231 111.782 9.22553 111.681 9.71754 111.465C10.21 111.249 10.648 110.925 11.0004 110.516C11.7552 109.598 12.1436 108.428 12.0884 107.235C12.142 106.029 11.75 104.846 10.9884 103.917C10.6356 103.509 10.1972 103.185 9.70515 102.97C9.21313 102.755 8.67991 102.654 8.14429 102.675C7.60307 102.653 7.06425 102.753 6.56583 102.968C6.06782 103.182 5.623 103.507 5.26419 103.917C4.51096 104.85 4.12775 106.032 4.18815 107.235C4.13295 108.428 4.52136 109.598 5.27619 110.516Z" fill="#0A0B0D"/>
<path d="M22.1886 114.559C20.9169 113.866 19.8645 112.824 19.1525 111.552C18.4385 110.227 18.0645 108.742 18.0645 107.233C18.0645 105.723 18.4385 104.238 19.1525 102.913C19.8665 101.643 20.9185 100.602 22.1886 99.9067C23.5414 99.1942 25.0439 98.8223 26.5687 98.8223C28.0936 98.8223 29.5964 99.1942 30.9489 99.9067C32.2193 100.603 33.2722 101.644 33.989 102.913C34.7006 104.239 35.073 105.724 35.073 107.233C35.073 108.741 34.7006 110.226 33.989 111.552C33.2746 112.823 32.2209 113.865 30.9489 114.559C29.5964 115.271 28.0936 115.643 26.5687 115.643C25.0439 115.643 23.5414 115.271 22.1886 114.559ZM23.6606 110.512C24.0347 110.913 24.4855 111.233 24.9859 111.451C25.4863 111.67 26.0259 111.782 26.5707 111.782C27.116 111.782 27.6552 111.67 28.1556 111.451C28.656 111.233 29.1068 110.913 29.4808 110.512C30.2481 109.601 30.6441 108.43 30.5889 107.235C30.6429 106.031 30.2441 104.851 29.4728 103.933C29.0972 103.535 28.6456 103.218 28.1452 103.002C27.6452 102.785 27.1068 102.674 26.5627 102.674C26.0187 102.674 25.4803 102.785 24.9803 103.002C24.4799 103.218 24.0283 103.535 23.6526 103.933C22.8786 104.85 22.4782 106.03 22.5326 107.235C22.4842 108.429 22.8878 109.596 23.6606 110.5V110.512Z" fill="#0A0B0D"/>
<path d="M37.7617 92H42.1891V115.384H37.7617V92Z" fill="#0A0B0D"/>
<path d="M50.1335 115.255L44.2812 99.0693H48.8214L52.2095 109.59L55.5696 99.0693H60.1378L54.2896 115.307L52.0175 121.968H47.7654L50.1335 115.255Z" fill="#0A0B0D"/>
<path d="M62.6823 113.361C61.3251 111.845 60.6475 109.803 60.6503 107.235C60.6143 105.7 60.9263 104.177 61.5623 102.784C62.1323 101.567 63.0471 100.548 64.1904 99.8581C65.4044 99.1475 66.7881 98.7878 68.1905 98.8182C69.083 98.8071 69.9686 98.9778 70.7946 99.3199C71.515 99.6105 72.1487 100.084 72.6347 100.696V99.0771H77.1108V116.351C77.142 117.114 77.0096 117.875 76.7224 118.581C76.4352 119.287 76 119.922 75.4468 120.442C74.3375 121.467 72.8707 121.978 71.0466 121.975H62.9263V118.451H70.3426C70.6582 118.461 70.9718 118.401 71.2622 118.275C71.5522 118.149 71.8119 117.961 72.0227 117.723C72.4687 117.212 72.7035 116.547 72.6787 115.866V113.729C72.2299 114.365 71.607 114.855 70.8866 115.137C70.055 115.478 69.1642 115.649 68.2665 115.639C65.8956 115.642 64.0344 114.882 62.6823 113.361ZM66.1025 110.529C66.4617 110.932 66.9049 111.25 67.4001 111.46C67.8953 111.67 68.4301 111.766 68.9666 111.742C69.5046 111.765 70.041 111.668 70.5378 111.458C71.035 111.249 71.4802 110.931 71.8426 110.529C72.6027 109.607 72.9915 108.429 72.9307 107.231C72.9879 106.026 72.5999 104.844 71.8426 103.913C71.4842 103.503 71.0402 103.179 70.543 102.964C70.0454 102.749 69.507 102.649 68.9666 102.67C68.4277 102.647 67.8905 102.747 67.3949 102.962C66.8989 103.177 66.4573 103.502 66.1025 103.913C65.354 104.848 64.9724 106.029 65.0304 107.231C64.9644 108.435 65.3468 109.62 66.1025 110.553V110.529Z" fill="#0A0B0D"/>
<path d="M83.9269 114.559C82.6552 113.866 81.6028 112.824 80.8908 111.552C80.1767 110.227 79.8027 108.742 79.8027 107.233C79.8027 105.723 80.1767 104.238 80.8908 102.913C81.6048 101.643 82.6568 100.602 83.9269 99.9067C85.2793 99.1942 86.7822 98.8223 88.307 98.8223C89.8319 98.8223 91.3347 99.1942 92.6872 99.9067C93.9572 100.602 95.0093 101.643 95.7233 102.913C96.4373 104.238 96.8113 105.723 96.8113 107.233C96.8113 108.742 96.4373 110.227 95.7233 111.552C95.0113 112.824 93.9588 113.866 92.6872 114.559C91.3347 115.271 89.8319 115.643 88.307 115.643C86.7822 115.643 85.2793 115.271 83.9269 114.559ZM85.3989 110.512C85.7729 110.912 86.2238 111.232 86.7238 111.45C87.2238 111.668 87.7626 111.78 88.307 111.78C88.8514 111.78 89.3903 111.668 89.8903 111.45C90.3903 111.232 90.8411 110.912 91.2151 110.512C91.9852 109.607 92.3856 108.44 92.3352 107.247C92.3896 106.042 91.9892 104.862 91.2151 103.945C90.8399 103.547 90.3883 103.23 89.8887 103.014C89.3887 102.798 88.8506 102.686 88.307 102.686C87.7634 102.686 87.2254 102.798 86.7254 103.014C86.2258 103.23 85.7741 103.547 85.3989 103.945C84.6249 104.862 84.2245 106.042 84.2789 107.247C84.2293 108.434 84.6269 109.597 85.3909 110.5L85.3989 110.512Z" fill="#0A0B0D"/>
<path d="M99.2393 99.0807H103.719V101.347C104.171 100.544 104.849 99.8959 105.667 99.4854C106.576 99.0305 107.578 98.8016 108.592 98.8177C109.695 98.7946 110.784 99.0742 111.744 99.627C112.645 100.164 113.376 100.95 113.852 101.893C114.367 102.925 114.625 104.068 114.604 105.223V115.379H110.144V106.231C110.173 105.339 109.864 104.471 109.28 103.803C108.997 103.49 108.651 103.243 108.265 103.079C107.879 102.915 107.462 102.837 107.044 102.852C106.595 102.837 106.148 102.92 105.734 103.095C105.32 103.271 104.948 103.534 104.643 103.868C104.015 104.583 103.683 105.517 103.719 106.473V115.4H99.2393V99.0807Z" fill="#0A0B0D"/>
<path d="M142.657 92.749V115.409H139.909V104.937H128.08V115.384H125.328V92.749H128.08V102.46H139.909V92.749H142.657Z" fill="#0A0B0D"/>
<path d="M147.117 102.864C147.712 101.636 148.64 100.604 149.793 99.8901C151.019 99.1551 152.425 98.7835 153.85 98.8178C155.246 98.7833 156.626 99.124 157.85 99.8051C158.959 100.445 159.863 101.395 160.454 102.54C161.073 103.749 161.386 105.093 161.366 106.453C161.371 106.831 161.35 107.208 161.302 107.582H148.701C148.749 109.12 149.339 110.59 150.365 111.726C150.844 112.252 151.428 112.669 152.078 112.948C152.729 113.227 153.431 113.362 154.138 113.344C155.253 113.398 156.36 113.117 157.318 112.535C158.134 111.982 158.708 111.131 158.918 110.16H161.506C161.391 110.957 161.12 111.722 160.708 112.411C160.296 113.1 159.751 113.698 159.106 114.17C157.652 115.199 155.907 115.722 154.134 115.659C152.673 115.685 151.236 115.286 149.993 114.51C148.804 113.752 147.837 112.686 147.193 111.422C146.518 110.098 146.174 108.627 146.193 107.137C146.164 105.659 146.48 104.195 147.117 102.864ZM158.742 105.531C158.695 104.287 158.173 103.111 157.286 102.249C156.322 101.47 155.128 101.041 153.894 101.032C152.66 101.023 151.459 101.435 150.485 102.201C149.559 103.077 148.969 104.257 148.821 105.531H158.742Z" fill="#0A0B0D"/>
<path d="M168.314 103.188C167.687 104.4 167.374 106.071 167.374 108.202V115.384H164.813V99.0812H167.394V102.383C167.64 101.405 168.188 100.532 168.958 99.8905C169.778 99.3184 170.762 99.0341 171.758 99.0812H173.794V101.38H171.558C170.024 101.38 168.943 101.982 168.314 103.188Z" fill="#0A0B0D"/>
<path d="M176.518 99.0811H179.074V102.221C179.381 101.225 180.005 100.36 180.85 99.7609C181.752 99.1217 182.833 98.7913 183.934 98.8181C185.15 98.7829 186.35 99.0987 187.394 99.7285C187.855 100.009 188.257 100.38 188.576 100.819C188.895 101.258 189.124 101.756 189.25 102.286C189.576 101.255 190.256 100.377 191.166 99.8094C192.14 99.1541 193.285 98.8088 194.454 98.8181C196.198 98.8181 197.568 99.3792 198.562 100.501C199.557 101.624 200.052 103.165 200.047 105.126V115.38H197.49V105.81C197.548 104.6 197.204 103.405 196.514 102.415C196.206 101.998 195.802 101.663 195.337 101.437C194.873 101.212 194.361 101.103 193.846 101.12C193.262 101.091 192.678 101.192 192.136 101.416C191.594 101.639 191.107 101.981 190.71 102.415C189.917 103.359 189.507 104.572 189.562 105.81V115.384H186.994V105.81C187.052 104.6 186.708 103.405 186.018 102.415C185.716 101.999 185.318 101.663 184.858 101.438C184.399 101.212 183.892 101.103 183.382 101.12C182.793 101.09 182.205 101.19 181.658 101.413C181.112 101.637 180.62 101.979 180.218 102.415C179.421 103.358 179.009 104.572 179.066 105.81V115.384H176.51L176.518 99.0811Z" fill="#0A0B0D"/>
<path d="M204.284 102.864C204.878 101.64 205.805 100.612 206.956 99.9022C208.182 99.1621 209.589 98.7863 211.016 98.8177C212.412 98.7838 213.793 99.1244 215.016 99.8051C216.126 100.445 217.03 101.394 217.62 102.54C218.239 103.748 218.553 105.093 218.533 106.453C218.538 106.831 218.517 107.208 218.469 107.582H205.868C205.914 109.119 206.503 110.589 207.528 111.726C208.008 112.252 208.593 112.668 209.243 112.947C209.895 113.226 210.597 113.362 211.304 113.344C212.427 113.402 213.541 113.12 214.504 112.535C215.321 111.982 215.895 111.131 216.104 110.16H218.693C218.578 110.956 218.307 111.722 217.895 112.411C217.482 113.099 216.937 113.698 216.292 114.17C214.84 115.199 213.096 115.722 211.324 115.659C209.864 115.685 208.427 115.286 207.184 114.51C205.994 113.753 205.027 112.687 204.384 111.422C203.707 110.104 203.36 108.638 203.376 107.153C203.339 105.671 203.65 104.201 204.284 102.864ZM215.908 105.531C215.862 104.287 215.34 103.111 214.452 102.249C213.506 101.409 212.274 100.974 211.016 101.035C209.792 100.986 208.593 101.402 207.656 102.201C206.731 103.077 206.143 104.257 205.996 105.531H215.908Z" fill="#0A0B0D"/>
<path d="M220.596 113.085L230.596 101.379H221.052V99.0811H233.556V101.379L223.644 113.085H234V115.384H220.596V113.085Z" fill="#0A0B0D"/>
</svg>
