<svg viewBox="0 0 220 122" fill="none" xmlns="http://www.w3.org/2000/svg">
<path d="M137.934 19.7286L115.321 6.66646C113.701 5.73832 111.867 5.25 110 5.25C108.134 5.25 106.299 5.73832 104.68 6.66646L82.0672 19.7286C80.4492 20.6628 79.1056 22.0064 78.1716 23.6246C77.2377 25.2427 76.7462 27.0782 76.7466 28.9465V55.1241C76.7601 56.9788 77.2582 58.7979 78.1915 60.4007C79.1248 62.0037 80.4608 63.3348 82.0672 64.2622L104.68 77.3244C106.298 78.2583 108.133 78.75 110 78.75C111.868 78.75 113.703 78.2583 115.321 77.3244L137.934 64.2622C139.552 63.328 140.895 61.9844 141.829 60.3662C142.763 58.748 143.255 56.9126 143.254 55.0443V28.8667C143.241 27.012 142.743 25.1929 141.809 23.59C140.876 21.9871 139.54 20.656 137.934 19.7286ZM82.0672 28.9465C82.0659 28.0112 82.3111 27.0921 82.778 26.2818C83.2452 25.4714 83.9176 24.7986 84.7275 24.331L107.34 11.2821C108.148 10.8118 109.066 10.5641 110 10.5641C110.935 10.5641 111.853 10.8118 112.661 11.2821L135.273 24.331C136.072 24.7918 136.737 25.4521 137.203 26.2472C137.669 27.0424 137.921 27.9451 137.934 28.8667V31.527C137.927 33.598 137.1 35.582 135.634 37.0451C134.169 38.5082 132.183 39.3316 130.112 39.3351H89.8885C87.0691 39.3284 84.3239 40.2388 82.0672 41.9289V28.9465ZM137.934 55.0443C137.935 55.9796 137.69 56.8987 137.223 57.7091C136.756 58.5193 136.083 59.1922 135.273 59.6598L112.661 72.7087C111.852 73.1757 110.934 73.4215 110 73.4215C109.066 73.4215 108.149 73.1757 107.34 72.7087L84.7275 59.6598C83.9291 59.199 83.2642 58.5387 82.7979 57.7436C82.3315 56.9485 82.0797 56.0457 82.0672 55.1241V52.4638C82.0743 50.3928 82.9009 48.4088 84.3666 46.9456C85.8322 45.4826 87.8175 44.6593 89.8885 44.6557H130.112C132.932 44.6624 135.677 43.7521 137.934 42.062V55.0443Z" fill="#7B3FE4"/>
<path d="M97.6295 27.6165H102.79V35.3448H108.111V27.6165C108.111 26.2054 107.551 24.8521 106.553 23.8542C105.555 22.8565 104.202 22.2959 102.79 22.2959H97.6295C96.2184 22.2959 94.8651 22.8565 93.8672 23.8542C92.8694 24.8521 92.3088 26.2054 92.3088 27.6165V35.3448H97.6295V27.6165Z" fill="#7B3FE4"/>
<path d="M102.79 56.3736H97.6295V48.6455H92.3088V56.3736C92.3088 57.7848 92.8694 59.1382 93.8672 60.1359C94.8651 61.1337 96.2184 61.6942 97.6295 61.6942H102.79C104.202 61.6942 105.555 61.1337 106.553 60.1359C107.551 59.1382 108.111 57.7848 108.111 56.3736V48.6455H102.79V56.3736Z" fill="#7B3FE4"/>
<path d="M118.593 27.6165H123.767V35.3448H129.088V27.6165C129.088 26.2054 128.527 24.8521 127.529 23.8542C126.531 22.8565 125.178 22.2959 123.767 22.2959H118.593C117.182 22.2959 115.828 22.8565 114.83 23.8542C113.833 24.8521 113.272 26.2054 113.272 27.6165V35.3448H118.593V27.6165Z" fill="#7B3FE4"/>
<path d="M123.767 56.3736H118.593V48.6455H113.272V56.3736C113.272 57.7848 113.833 59.1382 114.83 60.1359C115.828 61.1337 117.182 61.6942 118.593 61.6942H123.767C125.178 61.6942 126.531 61.1337 127.529 60.1359C128.527 59.1382 129.088 57.7848 129.088 56.3736V48.6455H123.767V56.3736Z" fill="#7B3FE4"/>
<path d="M0 99.0814H4.48473V100.862C4.99383 100.204 5.66042 99.6867 6.42248 99.3565C7.28808 98.9852 8.22204 98.8018 9.16333 98.8183C10.5495 98.7865 11.9164 99.1469 13.1075 99.8583C14.2414 100.566 15.1448 101.589 15.7069 102.804C16.3489 104.198 16.6636 105.721 16.6275 107.255C16.6602 108.785 16.3222 110.3 15.6425 111.67C15.0188 112.893 14.0614 113.913 12.8814 114.612C11.6363 115.329 10.2199 115.693 8.78388 115.664C7.92464 115.674 7.07101 115.521 6.26914 115.211C5.57765 114.952 4.9655 114.516 4.49303 113.948V122H0V99.0814ZM5.32444 110.517C5.68655 110.927 6.13509 111.252 6.63784 111.468C7.1406 111.683 7.68462 111.784 8.23108 111.763C8.77168 111.783 9.31007 111.681 9.80672 111.465C10.3031 111.25 10.7456 110.926 11.1011 110.517C11.8629 109.598 12.2546 108.428 12.1991 107.235C12.2533 106.029 11.8575 104.846 11.0889 103.917C10.7329 103.509 10.2907 103.185 9.79402 102.97C9.29738 102.756 8.75922 102.654 8.21887 102.675C7.6729 102.653 7.12863 102.753 6.62612 102.968C6.12337 103.183 5.67458 103.507 5.31247 103.917C4.55236 104.85 4.16535 106.032 4.22639 107.235C4.17097 108.428 4.56262 109.598 5.32444 110.517Z" fill="#0A0B0D"/>
<path d="M22.3897 114.561C21.1063 113.868 20.0442 112.826 19.3258 111.554C18.6053 110.229 18.2278 108.744 18.2278 107.235C18.2278 105.726 18.6053 104.24 19.3258 102.915C20.0464 101.645 21.1078 100.604 22.3897 99.9087C23.7546 99.1962 25.271 98.8242 26.81 98.8242C28.3488 98.8242 29.8651 99.1962 31.2302 99.9087C32.5122 100.605 33.5746 101.646 34.298 102.915C35.0159 104.241 35.3919 105.726 35.3919 107.235C35.3919 108.743 35.0159 110.228 34.298 111.554C33.577 112.825 32.5139 113.867 31.2302 114.561C29.8651 115.273 28.3488 115.645 26.81 115.645C25.271 115.645 23.7546 115.273 22.3897 114.561ZM23.8753 110.514C24.2525 110.915 24.7076 111.235 25.2126 111.453C25.7178 111.672 26.2618 111.785 26.8119 111.785C27.3618 111.785 27.9061 111.672 28.411 111.453C28.9162 111.235 29.3714 110.915 29.7486 110.514C30.5229 109.604 30.9226 108.432 30.8669 107.237C30.9214 106.033 30.519 104.853 29.7405 103.935C29.3613 103.537 28.9057 103.22 28.4008 103.004C27.8961 102.787 27.3528 102.676 26.8039 102.676C26.2547 102.676 25.7114 102.787 25.2067 103.004C24.702 103.22 24.2462 103.537 23.8672 103.935C23.0858 104.852 22.6817 106.032 22.7367 107.237C22.6881 108.431 23.0951 109.599 23.8753 110.502V110.514Z" fill="#0A0B0D"/>
<path d="M38.1072 92H42.576V115.384H38.1072V92Z" fill="#0A0B0D"/>
<path d="M50.5916 115.256L44.6858 99.0703H49.2675L52.6866 109.591L56.0774 99.0703H60.6874L54.7858 115.309L52.4927 121.969H48.2016L50.5916 115.256Z" fill="#0A0B0D"/>
<path d="M63.2555 113.361C61.8857 111.845 61.2023 109.803 61.2049 107.235C61.1688 105.7 61.4835 104.178 62.1252 102.784C62.7008 101.567 63.6237 100.548 64.7774 99.8581C66.0027 99.1475 67.3989 98.7878 68.8141 98.8182C69.7149 98.8071 70.6085 98.9778 71.4421 99.3199C72.169 99.6105 72.8085 100.084 73.2991 100.696V99.0772H77.8163V116.351C77.8478 117.115 77.714 117.875 77.4241 118.582C77.1343 119.288 76.695 119.923 76.1369 120.442C75.0173 121.468 73.5372 121.979 71.6963 121.976H63.5019V118.452H70.986C71.3044 118.461 71.6211 118.401 71.9139 118.275C72.2069 118.149 72.4686 117.961 72.6813 117.723C73.1316 117.212 73.3684 116.547 73.3435 115.866V113.729C72.8906 114.366 72.2618 114.855 71.5349 115.138C70.6955 115.479 69.7967 115.65 68.8908 115.639C66.4984 115.642 64.62 114.883 63.2555 113.361ZM66.7069 110.529C67.0695 110.932 67.5166 111.251 68.0164 111.46C68.5162 111.67 69.0561 111.767 69.5974 111.743C70.1402 111.765 70.6815 111.668 71.1831 111.459C71.6846 111.249 72.1341 110.931 72.4997 110.529C73.2669 109.607 73.659 108.429 73.5977 107.231C73.6553 106.026 73.2639 104.844 72.4997 103.913C72.138 103.503 71.69 103.179 71.188 102.964C70.6862 102.749 70.1427 102.649 69.5974 102.67C69.0534 102.647 68.5113 102.747 68.011 102.962C67.511 103.177 67.0651 103.502 66.7069 103.913C65.9519 104.848 65.5669 106.029 65.6252 107.231C65.5583 108.435 65.9443 109.62 66.7069 110.553V110.529Z" fill="#0A0B0D"/>
<path d="M84.6951 114.561C83.4118 113.868 82.3496 112.826 81.6313 111.554C80.9107 110.229 80.5332 108.744 80.5332 107.235C80.5332 105.726 80.9107 104.24 81.6313 102.915C82.3518 101.645 83.4132 100.604 84.6951 99.9087C86.0601 99.1962 87.5764 98.8242 89.1154 98.8242C90.6542 98.8242 92.1705 99.1962 93.5357 99.9087C94.8173 100.604 95.8788 101.645 96.5996 102.915C97.3199 104.24 97.6973 105.726 97.6973 107.235C97.6973 108.744 97.3199 110.229 96.5996 111.554C95.881 112.826 94.819 113.868 93.5357 114.561C92.1705 115.273 90.6542 115.645 89.1154 115.645C87.5764 115.645 86.0601 115.273 84.6951 114.561ZM86.1807 110.514C86.5579 110.915 87.0128 111.234 87.5175 111.452C88.022 111.67 88.5658 111.782 89.1154 111.782C89.6648 111.782 90.2086 111.67 90.7133 111.452C91.2177 111.234 91.6726 110.915 92.0501 110.514C92.8271 109.609 93.2312 108.442 93.1804 107.249C93.2353 106.044 92.8312 104.864 92.0501 103.947C91.6712 103.549 91.2158 103.232 90.7113 103.016C90.2069 102.8 89.6641 102.688 89.1154 102.688C88.5667 102.688 88.0237 102.8 87.5192 103.016C87.0148 103.232 86.5594 103.549 86.1807 103.947C85.3993 104.864 84.9955 106.044 85.0504 107.249C85.0003 108.437 85.4013 109.599 86.1726 110.502L86.1807 110.514Z" fill="#0A0B0D"/>
<path d="M100.148 99.0808H104.669V101.347C105.125 100.544 105.81 99.8959 106.635 99.4854C107.552 99.0305 108.563 98.8016 109.586 98.8177C110.7 98.7946 111.799 99.0743 112.767 99.627C113.677 100.164 114.414 100.95 114.894 101.893C115.414 102.925 115.674 104.068 115.653 105.223V115.38H111.152V106.231C111.182 105.34 110.87 104.471 110.28 103.803C109.995 103.49 109.646 103.243 109.256 103.079C108.867 102.915 108.446 102.837 108.024 102.852C107.571 102.837 107.12 102.92 106.702 103.095C106.285 103.271 105.909 103.534 105.602 103.868C104.967 104.583 104.633 105.517 104.669 106.474V115.4H100.148V99.0808Z" fill="#0A0B0D"/>
<path d="M125.41 113.013L135.466 101.317H125.862V99.0234H138.464V101.317L128.472 113.013H138.915V115.307H125.41V113.013Z" fill="black"/>
<path d="M142.335 115.307V92.3359H144.945V105.905L152.584 99.0238H156.001L149.039 105.388L156.645 115.307H153.39L147.073 107.165L144.945 109.104V115.307H142.335Z" fill="black"/>
<path d="M159.398 92.6914H173.515V95.1791H162.137V102.384H171.388V104.872H162.137V112.819H173.869V115.307H159.398V92.6914Z" fill="black"/>
<path d="M175.494 92.6914H178.33L185.421 112.109L192.577 92.6914H195.38L186.839 115.307H184.035L175.494 92.6914Z" fill="black"/>
<path d="M197.988 92.6914H201.565L209.01 111.592L216.423 92.6914H220V115.307H217.326V97.2792L210.201 115.307H207.784L200.662 97.2792V115.307H197.988V92.6914Z" fill="black"/>
</svg>
